<svg xmlns="http://www.w3.org/2000/svg" xmlns:v="https://svgstorm.com"
viewBox = "0 0 666 375"
width="666"
height="375">
<g fill="None" fill-opacity="0.0" stroke="#000000" stroke-opacity="0.00" stroke-width="0.3"><path d="
M 0.00 375.00 
L 666.00 375.00
L 666.00 0.00
L 0.00 0.00
L 0.00 375.00
M 300.00 136.00 
C 309.13 137.30 320.36 138.14 330.00 136.00
C 330.23 135.95 330.65 135.04 331.00 135.00
C 339.44 134.00 350.01 136.26 359.00 136.00
C 360.84 135.95 363.36 135.82 366.00 136.00
C 371.53 135.84 378.74 135.00 385.00 135.00
C 385.50 135.00 386.00 135.00 386.00 135.00
C 388.59 134.75 393.01 134.60 395.00 135.00
C 400.10 136.04 406.92 140.49 408.00 146.00
C 408.09 146.48 408.00 147.00 408.00 147.00
C 408.40 152.30 405.00 157.14 405.00 163.00
C 405.00 164.26 404.78 165.77 405.00 167.00
C 405.99 172.46 405.41 175.98 405.00 182.00
C 404.75 185.63 405.00 189.36 405.00 193.00
C 405.00 196.01 405.66 199.75 404.00 202.00
C 404.00 202.50 404.00 203.00 404.00 203.00
C 404.24 205.21 404.30 207.48 403.00 209.00
C 402.98 209.50 403.00 210.00 403.00 210.00
C 403.67 211.29 403.54 215.71 404.00 218.00
C 405.57 225.84 402.29 228.22 398.03 234.03 C 393.76 239.83 388.56 240.91 381.99 238.01 C 375.43 235.10 367.63 239.80 361.00 238.00
C 354.25 236.17 349.37 235.10 342.00 235.00
C 333.43 236.06 326.46 235.00 317.00 235.00
C 314.00 235.00 311.00 235.00 308.00 235.00
C 302.67 235.00 297.33 235.00 292.00 235.00
C 281.50 235.00 271.96 232.95 262.00 231.00
C 253.57 222.09 261.03 214.34 261.00 204.00
C 258.83 202.31 260.81 200.48 261.00 199.00
C 260.83 197.75 260.95 196.26 261.00 195.00
C 261.11 192.46 262.04 190.50 262.00 188.00
C 261.89 181.71 260.80 174.57 261.00 168.00
C 261.25 159.53 257.64 151.93 263.00 145.00
C 264.92 142.52 265.13 141.60 268.00 140.00
C 269.92 138.93 271.51 138.26 274.00 138.00
C 281.06 135.49 292.63 134.95 300.00 136.00 Z"/>
</g>
<g fill="None" fill-opacity="0.0" stroke="#D6D4D6" stroke-opacity="0.38" stroke-width="0.3"><path d="
M 274.00 138.00 
C 277.40 137.64 283.68 137.78 288.00 139.00 C 292.32 140.22 299.67 136.06 300.00 136.00
C 292.63 134.95 281.06 135.49 274.00 138.00 Z"/>
</g>
<g fill="None" fill-opacity="0.0" stroke="#D1CECF" stroke-opacity="0.45" stroke-width="0.3"><path d="
M 330.00 136.00 
C 330.47 138.34 333.24 138.01 335.00 138.00
C 335.82 134.85 331.51 137.17 331.00 135.00
C 330.65 135.04 330.23 135.95 330.00 136.00 Z"/>
</g>
<g fill="None" fill-opacity="0.0" stroke="#D5D5D5" stroke-opacity="0.96" stroke-width="0.3"><path d="
M 330.00 136.00 
C 320.36 138.14 309.13 137.30 300.00 136.00
C 299.67 136.06 292.32 140.22 288.00 139.00 C 283.68 137.78 277.40 137.64 274.00 138.00
C 271.51 138.26 269.92 138.93 268.00 140.00
C 270.12 138.15 263.16 144.88 263.00 145.00
C 257.64 151.93 261.25 159.53 261.00 168.00
C 262.51 173.64 263.78 181.37 262.00 188.00
C 262.04 190.50 261.11 192.46 261.00 195.00
C 260.99 194.92 264.23 199.14 263.00 201.00 C 261.77 202.86 263.46 207.90 262.00 204.00
C 261.94 203.84 261.00 204.00 261.00 204.00
C 261.03 214.34 253.57 222.09 262.00 231.00
C 271.96 232.95 281.50 235.00 292.00 235.00
C 291.96 235.00 292.00 234.00 292.00 234.00
C 289.16 234.00 285.02 234.79 283.00 233.00
C 285.27 231.76 291.92 230.84 294.00 233.00
C 294.25 233.26 294.00 234.00 294.00 234.00
C 297.05 234.19 299.27 233.57 302.00 233.00
C 307.78 231.80 313.87 232.00 320.00 232.00
C 322.53 232.00 326.29 231.23 328.00 233.00
C 328.25 233.26 328.00 234.00 328.00 234.00
C 330.78 235.80 332.65 235.10 336.00 235.00
C 344.64 232.93 355.59 231.52 363.00 236.00
C 362.92 237.26 360.94 236.56 361.00 238.00
C 367.63 239.80 375.43 235.10 381.99 238.01 C 388.56 240.91 393.76 239.83 398.03 234.03 C 402.29 228.22 405.57 225.84 404.00 218.00
C 403.55 217.11 402.47 216.14 402.00 215.00
C 400.85 212.20 401.36 210.66 402.00 208.00
C 402.04 206.67 401.97 205.33 402.00 204.00
C 403.75 204.83 402.66 207.44 403.00 209.00
C 404.30 207.48 404.24 205.21 404.00 203.00
C 401.62 203.35 402.96 197.16 403.00 195.00
C 403.10 189.76 403.97 185.31 405.00 182.00
C 405.41 175.98 405.99 172.46 405.00 167.00
C 404.67 166.19 403.19 167.12 403.04 164.96 C 402.88 162.81 404.90 163.67 405.00 163.00
C 405.00 157.14 408.40 152.30 408.00 147.00
C 407.70 147.77 406.84 149.46 406.00 150.00
C 406.95 146.61 404.85 144.35 403.00 142.00
C 405.73 141.61 406.37 144.93 408.00 146.00
C 406.92 140.49 400.10 136.04 395.00 135.00
C 394.63 135.14 394.12 136.67 394.00 137.00
C 393.09 139.55 383.00 137.46 378.00 138.00 C 373.00 138.54 363.42 137.59 358.00 138.00
C 359.62 136.73 363.97 136.29 359.00 136.00
C 350.01 136.26 339.44 134.00 331.00 135.00
C 331.51 137.17 335.82 134.85 335.00 138.00
C 333.24 138.01 330.47 138.34 330.00 136.00
M 314.00 153.00 
C 317.04 152.56 318.90 152.36 321.00 153.00
C 328.19 155.18 325.69 161.08 320.00 161.00
C 321.12 167.97 326.98 162.69 330.00 161.00
C 330.78 154.35 334.97 144.91 342.00 144.00
C 342.03 146.99 340.70 149.65 339.00 152.00
C 338.35 153.16 337.64 154.06 337.00 155.00
C 333.86 159.61 332.19 171.03 340.00 164.00
C 339.46 170.34 328.94 171.02 329.00 164.00
C 323.19 168.64 313.86 165.58 317.00 157.00
C 317.19 155.39 318.08 156.29 317.00 155.00
C 308.03 152.02 313.97 175.36 304.00 172.00
C 304.20 167.13 306.37 162.79 307.00 158.00
C 299.87 156.88 303.88 169.00 297.00 168.00
C 298.48 163.48 298.90 159.88 298.00 155.00
C 303.96 157.77 301.31 145.96 307.00 146.00
C 307.00 148.54 304.40 150.26 305.00 153.00
C 312.42 153.72 308.20 140.01 317.00 143.00
C 317.31 146.78 314.64 149.42 314.00 153.00
M 354.00 149.00 
C 352.98 152.09 349.13 154.42 348.00 157.00
C 347.64 160.73 345.47 170.28 352.00 165.00
C 347.92 174.56 338.56 165.00 342.92 158.92 C 347.29 152.85 345.81 144.20 355.00 144.00
C 355.62 145.94 353.80 147.13 354.00 149.00
M 361.00 159.00 
C 360.38 157.61 360.74 155.45 360.00 154.00
C 362.03 153.36 362.06 155.69 362.00 157.00
C 363.68 158.81 364.23 161.24 368.00 160.00
C 368.51 161.41 367.19 162.15 366.00 162.00
C 364.25 163.12 362.84 162.49 361.00 164.00
C 360.14 165.86 358.10 168.01 356.00 168.00
C 351.89 163.79 355.52 157.78 357.00 154.00
C 356.56 155.99 358.79 161.68 361.00 159.00
M 387.00 191.00 
C 387.00 196.33 387.00 201.67 387.00 207.00
C 380.71 208.32 380.61 189.69 387.00 191.00
M 291.00 192.00 
C 292.24 195.78 289.02 196.54 286.00 196.00
C 286.00 202.33 286.00 208.67 286.00 215.00
C 275.91 216.13 284.06 201.42 280.00 196.00
C 276.90 196.65 273.93 195.77 275.00 192.00
C 280.33 192.00 285.67 192.00 291.00 192.00
M 312.00 192.00 
C 314.12 193.34 313.13 200.43 313.00 203.00 C 312.87 205.57 314.30 213.54 312.00 215.00
C 310.81 215.75 308.31 214.43 307.00 215.00
C 307.00 212.00 307.00 209.00 307.00 206.00
C 296.33 201.60 303.82 216.61 295.00 215.00
C 295.00 207.33 295.00 199.67 295.00 192.00
C 301.49 189.96 299.94 196.95 300.00 201.00
C 307.08 203.21 307.89 197.64 307.00 192.00
C 308.67 192.00 310.33 192.00 312.00 192.00
M 330.00 192.00 
C 332.20 199.30 319.35 192.79 322.00 201.00
C 326.04 200.76 331.80 200.02 330.00 206.00
C 326.67 206.22 320.51 204.44 322.00 210.00
C 326.04 209.76 331.80 209.02 330.00 215.00
C 325.67 215.00 321.33 215.00 317.00 215.00
C 317.00 207.33 317.00 199.67 317.00 192.00
C 321.33 192.00 325.67 192.00 330.00 192.00
M 335.00 214.00 
C 333.00 212.00 332.64 193.65 335.00 192.00
C 342.84 186.51 357.39 199.35 346.00 205.00
C 346.49 209.03 352.21 210.57 352.00 215.00
C 346.32 216.67 342.86 211.24 341.00 207.00
C 338.97 208.77 340.47 212.48 340.00 215.00
C 338.43 214.61 335.78 215.94 335.00 214.00
M 356.00 214.00 
C 354.00 212.00 353.64 193.65 356.00 192.00
C 358.91 189.96 365.74 193.53 369.00 192.00
C 370.63 197.50 364.25 195.78 361.00 196.00
C 357.81 204.01 367.96 198.03 368.92 203.08 C 369.87 208.14 358.20 203.43 361.00 210.00
C 376.31 208.18 363.81 219.93 356.00 214.00
M 387.00 209.00 
C 390.21 210.93 386.60 217.14 383.33 214.67 C 380.05 212.19 383.60 206.96 387.00 209.00 Z"/>
</g>
<g fill="None" fill-opacity="0.0" stroke="#D5D2D5" stroke-opacity="0.49" stroke-width="0.3"><path d="
M 359.00 136.00 
C 363.97 136.29 359.62 136.73 358.00 138.00
C 363.42 137.59 373.00 138.54 378.00 138.00 C 383.00 137.46 393.09 139.55 394.00 137.00
C 392.45 137.53 387.17 135.55 386.00 135.00
C 386.00 135.00 385.50 135.00 385.00 135.00
C 381.47 137.61 370.68 136.32 366.00 136.00
C 363.36 135.82 360.84 135.95 359.00 136.00 Z"/>
</g>
<g fill="None" fill-opacity="0.0" stroke="#F9F9F9" stroke-opacity="0.01" stroke-width="0.3"><path d="
M 366.00 136.00 
C 370.68 136.32 381.47 137.61 385.00 135.00
C 378.74 135.00 371.53 135.84 366.00 136.00 Z"/>
</g>
<g fill="None" fill-opacity="0.0" stroke="#F5F4F5" stroke-opacity="0.02" stroke-width="0.3"><path d="
M 394.00 137.00 
C 394.12 136.67 394.63 135.14 395.00 135.00
C 393.01 134.60 388.59 134.75 386.00 135.00
C 387.17 135.55 392.45 137.53 394.00 137.00 Z"/>
</g>
<g fill="None" fill-opacity="0.0" stroke="#D3D2D3" stroke-opacity="0.24" stroke-width="0.3"><path d="
M 263.00 145.00 
C 263.16 144.88 270.12 138.15 268.00 140.00
C 265.13 141.60 264.92 142.52 263.00 145.00 Z"/>
</g>
<g fill="None" fill-opacity="0.0" stroke="#CCC8CB" stroke-opacity="0.42" stroke-width="0.3"><path d="
M 408.00 147.00 
C 408.00 147.00 408.09 146.48 408.00 146.00
C 406.37 144.93 405.73 141.61 403.00 142.00
C 404.85 144.35 406.95 146.61 406.00 150.00
C 406.84 149.46 407.70 147.77 408.00 147.00 Z"/>
</g>
<g fill="None" fill-opacity="0.0" stroke="#0F0F0F" stroke-opacity="1.00" stroke-width="0.3"><path d="
M 317.00 155.00 
C 316.07 153.89 314.67 154.41 314.00 153.00
C 314.64 149.42 317.31 146.78 317.00 143.00
C 308.20 140.01 312.42 153.72 305.00 153.00
C 304.40 150.26 307.00 148.54 307.00 146.00
C 301.31 145.96 303.96 157.77 298.00 155.00
C 298.90 159.88 298.48 163.48 297.00 168.00
C 303.88 169.00 299.87 156.88 307.00 158.00
C 306.37 162.79 304.20 167.13 304.00 172.00
C 313.97 175.36 308.03 152.02 317.00 155.00 Z"/>
</g>
<g fill="None" fill-opacity="0.0" stroke="#202020" stroke-opacity="1.00" stroke-width="0.3"><path d="
M 321.00 153.00 
C 320.46 153.11 318.05 157.78 317.00 157.00
C 313.86 165.58 323.19 168.64 329.00 164.00
C 328.94 171.02 339.46 170.34 340.00 164.00
C 332.19 171.03 333.86 159.61 337.00 155.00
C 337.02 154.87 335.05 147.12 340.00 146.00
C 341.17 148.21 337.15 150.69 339.00 152.00
C 340.70 149.65 342.03 146.99 342.00 144.00
C 334.97 144.91 330.78 154.35 330.00 161.00
C 326.98 162.69 321.12 167.97 320.00 161.00
C 325.69 161.08 328.19 155.18 321.00 153.00 Z"/>
</g>
<g fill="None" fill-opacity="0.0" stroke="#161616" stroke-opacity="1.00" stroke-width="0.3"><path d="
M 348.00 157.00 
C 348.23 154.54 348.25 152.93 349.00 151.00
C 349.75 149.06 350.95 146.82 353.00 146.00
C 353.37 147.54 351.57 148.40 352.00 150.00
C 352.40 149.62 353.73 149.34 354.00 149.00
C 353.80 147.13 355.62 145.94 355.00 144.00
C 345.81 144.20 347.29 152.85 342.92 158.92 C 338.56 165.00 347.92 174.56 352.00 165.00
C 345.47 170.28 347.64 160.73 348.00 157.00 Z"/>
</g>
<g fill="None" fill-opacity="0.0" stroke="#979797" stroke-opacity="1.00" stroke-width="0.3"><path d="
M 337.00 155.00 
C 337.64 154.06 338.35 153.16 339.00 152.00
C 337.15 150.69 341.17 148.21 340.00 146.00
C 335.05 147.12 337.02 154.87 337.00 155.00 Z"/>
</g>
<g fill="None" fill-opacity="0.0" stroke="#B0B0B0" stroke-opacity="1.00" stroke-width="0.3"><path d="
M 349.00 151.00 
C 347.03 154.05 351.73 150.25 352.00 150.00
C 351.57 148.40 353.37 147.54 353.00 146.00
C 350.95 146.82 349.75 149.06 349.00 151.00 Z"/>
</g>
<g fill="None" fill-opacity="0.0" stroke="#666666" stroke-opacity="1.00" stroke-width="0.3"><path d="
M 352.00 150.00 
C 351.73 150.25 347.03 154.05 349.00 151.00
C 348.25 152.93 348.23 154.54 348.00 157.00
C 349.13 154.42 352.98 152.09 354.00 149.00
C 353.73 149.34 352.40 149.62 352.00 150.00 Z"/>
</g>
<g fill="None" fill-opacity="0.0" stroke="#676767" stroke-opacity="1.00" stroke-width="0.3"><path d="
M 314.00 153.00 
C 314.67 154.41 316.07 153.89 317.00 155.00
C 318.08 156.29 317.19 155.39 317.00 157.00
C 318.05 157.78 320.46 153.11 321.00 153.00
C 318.90 152.36 317.04 152.56 314.00 153.00 Z"/>
</g>
<g fill="None" fill-opacity="0.0" stroke="#1E1E1E" stroke-opacity="1.00" stroke-width="0.3"><path d="
M 361.00 164.00 
C 361.50 162.93 361.83 161.24 362.00 160.00
C 362.07 159.51 362.00 159.00 362.00 159.00
C 361.75 158.75 361.00 159.00 361.00 159.00
C 358.79 161.68 356.56 155.99 357.00 154.00
C 355.52 157.78 351.89 163.79 356.00 168.00
C 358.10 168.01 360.14 165.86 361.00 164.00 Z"/>
</g>
<g fill="None" fill-opacity="0.0" stroke="#6E6E6E" stroke-opacity="1.00" stroke-width="0.3"><path d="
M 361.00 159.00 
C 361.00 159.00 361.75 158.75 362.00 159.00
C 362.00 158.50 362.08 157.49 362.00 157.00
C 362.06 155.69 362.03 153.36 360.00 154.00
C 360.74 155.45 360.38 157.61 361.00 159.00 Z"/>
</g>
<g fill="None" fill-opacity="0.0" stroke="#979797" stroke-opacity="1.00" stroke-width="0.3"><path d="
M 362.00 159.00 
C 362.00 159.00 362.07 159.51 362.00 160.00
C 362.73 160.50 365.55 161.95 366.00 162.00
C 367.19 162.15 368.51 161.41 368.00 160.00
C 364.23 161.24 363.68 158.81 362.00 157.00
C 362.08 157.49 362.00 158.50 362.00 159.00 Z"/>
</g>
<g fill="None" fill-opacity="0.0" stroke="#5B5B5B" stroke-opacity="1.00" stroke-width="0.3"><path d="
M 361.00 164.00 
C 362.84 162.49 364.25 163.12 366.00 162.00
C 365.55 161.95 362.73 160.50 362.00 160.00
C 361.83 161.24 361.50 162.93 361.00 164.00 Z"/>
</g>
<g fill="None" fill-opacity="0.0" stroke="#E6DDE5" stroke-opacity="0.15" stroke-width="0.3"><path d="
M 405.00 167.00 
C 404.78 165.77 405.00 164.26 405.00 163.00
C 404.90 163.67 402.88 162.81 403.04 164.96 C 403.19 167.12 404.67 166.19 405.00 167.00 Z"/>
</g>
<g fill="None" fill-opacity="0.0" stroke="#D6D2D3" stroke-opacity="0.46" stroke-width="0.3"><path d="
M 262.00 188.00 
C 263.78 181.37 262.51 173.64 261.00 168.00
C 260.80 174.57 261.89 181.71 262.00 188.00 Z"/>
</g>
<g fill="None" fill-opacity="0.0" stroke="#CFCBCC" stroke-opacity="0.40" stroke-width="0.3"><path d="
M 403.00 195.00 
C 403.00 195.01 404.00 195.00 404.00 195.00
C 404.15 193.91 404.84 193.62 405.00 193.00
C 405.00 189.36 404.75 185.63 405.00 182.00
C 403.97 185.31 403.10 189.76 403.00 195.00 Z"/>
</g>
<g fill="None" fill-opacity="0.0" stroke="#0E0E0E" stroke-opacity="1.00" stroke-width="0.3"><path d="
M 387.00 191.00 
C 380.61 189.69 380.71 208.32 387.00 207.00
C 387.00 201.67 387.00 196.33 387.00 191.00 Z"/>
</g>
<g fill="None" fill-opacity="0.0" stroke="#060606" stroke-opacity="1.00" stroke-width="0.3"><path d="
M 291.00 192.00 
C 285.67 192.00 280.33 192.00 275.00 192.00
C 273.93 195.77 276.90 196.65 280.00 196.00
C 284.06 201.42 275.91 216.13 286.00 215.00
C 286.00 208.67 286.00 202.33 286.00 196.00
C 289.02 196.54 292.24 195.78 291.00 192.00 Z"/>
</g>
<g fill="None" fill-opacity="0.0" stroke="#030303" stroke-opacity="1.00" stroke-width="0.3"><path d="
M 312.00 215.00 
C 312.00 207.33 312.00 199.67 312.00 192.00
C 310.33 192.00 308.67 192.00 307.00 192.00
C 307.89 197.64 307.08 203.21 300.00 201.00
C 299.94 196.95 301.49 189.96 295.00 192.00
C 295.00 199.67 295.00 207.33 295.00 215.00
C 303.82 216.61 296.33 201.60 307.00 206.00
C 307.00 209.00 307.00 212.00 307.00 215.00
C 308.31 214.43 310.81 215.75 312.00 215.00 Z"/>
</g>
<g fill="None" fill-opacity="0.0" stroke="#757575" stroke-opacity="1.00" stroke-width="0.3"><path d="
M 312.00 215.00 
C 314.30 213.54 312.87 205.57 313.00 203.00 C 313.13 200.43 314.12 193.34 312.00 192.00
C 312.00 199.67 312.00 207.33 312.00 215.00 Z"/>
</g>
<g fill="None" fill-opacity="0.0" stroke="#080808" stroke-opacity="1.00" stroke-width="0.3"><path d="
M 330.00 192.00 
C 325.67 192.00 321.33 192.00 317.00 192.00
C 317.00 199.67 317.00 207.33 317.00 215.00
C 321.33 215.00 325.67 215.00 330.00 215.00
C 331.80 209.02 326.04 209.76 322.00 210.00
C 320.51 204.44 326.67 206.22 330.00 206.00
C 331.80 200.02 326.04 200.76 322.00 201.00
C 319.35 192.79 332.20 199.30 330.00 192.00 Z"/>
</g>
<g fill="None" fill-opacity="0.0" stroke="#656565" stroke-opacity="1.00" stroke-width="0.3"><path d="
M 335.00 214.00 
C 331.61 208.93 337.54 197.64 335.00 192.00
C 332.64 193.65 333.00 212.00 335.00 214.00 Z"/>
</g>
<g fill="None" fill-opacity="0.0" stroke="#080808" stroke-opacity="1.00" stroke-width="0.3"><path d="
M 335.00 214.00 
C 335.78 215.94 338.43 214.61 340.00 215.00
C 340.47 212.48 338.97 208.77 341.00 207.00
C 342.86 211.24 346.32 216.67 352.00 215.00
C 352.21 210.57 346.49 209.03 346.00 205.00
C 357.39 199.35 342.84 186.51 335.00 192.00
C 337.54 197.64 331.61 208.93 335.00 214.00
M 340.00 196.00 
C 349.91 197.07 337.66 207.72 340.00 196.00 Z"/>
</g>
<g fill="None" fill-opacity="0.0" stroke="#6A6A6A" stroke-opacity="1.00" stroke-width="0.3"><path d="
M 356.00 214.00 
C 352.55 209.08 358.58 197.52 356.00 192.00
C 353.64 193.65 354.00 212.00 356.00 214.00 Z"/>
</g>
<g fill="None" fill-opacity="0.0" stroke="#050505" stroke-opacity="1.00" stroke-width="0.3"><path d="
M 356.00 214.00 
C 363.81 219.93 376.31 208.18 361.00 210.00
C 358.20 203.43 369.87 208.14 368.92 203.08 C 367.96 198.03 357.81 204.01 361.00 196.00
C 364.25 195.78 370.63 197.50 369.00 192.00
C 365.74 193.53 358.91 189.96 356.00 192.00
C 358.58 197.52 352.55 209.08 356.00 214.00 Z"/>
</g>
<g fill="None" fill-opacity="0.0" stroke="#F6F6F6" stroke-opacity="0.01" stroke-width="0.3"><path d="
M 404.00 195.00 
C 403.70 197.24 404.00 199.74 404.00 202.00
C 405.66 199.75 405.00 196.01 405.00 193.00
C 404.84 193.62 404.15 193.91 404.00 195.00 Z"/>
</g>
<g fill="None" fill-opacity="0.0" stroke="#D3CDCF" stroke-opacity="0.67" stroke-width="0.3"><path d="
M 261.00 199.00 
C 261.17 200.24 262.63 202.04 262.00 204.00
C 263.46 207.90 261.77 202.86 263.00 201.00 C 264.23 199.14 260.99 194.92 261.00 195.00
C 260.95 196.26 260.83 197.75 261.00 199.00 Z"/>
</g>
<g fill="None" fill-opacity="0.0" stroke="#CECAD0" stroke-opacity="0.20" stroke-width="0.3"><path d="
M 404.00 203.00 
C 404.00 203.00 404.00 202.50 404.00 202.00
C 404.00 199.74 403.70 197.24 404.00 195.00
C 404.00 195.00 403.00 195.01 403.00 195.00
C 402.96 197.16 401.62 203.35 404.00 203.00 Z"/>
</g>
<g fill="None" fill-opacity="0.0" stroke="#CFCFCF" stroke-opacity="1.00" stroke-width="0.3"><path d="
M 340.00 196.00 
C 337.66 207.72 349.91 197.07 340.00 196.00 Z"/>
</g>
<g fill="None" fill-opacity="0.0" stroke="#CFC2C9" stroke-opacity="0.22" stroke-width="0.3"><path d="
M 261.00 204.00 
C 261.00 204.00 261.94 203.84 262.00 204.00
C 262.63 202.04 261.17 200.24 261.00 199.00
C 260.81 200.48 258.83 202.31 261.00 204.00 Z"/>
</g>
<g fill="None" fill-opacity="0.0" stroke="#C5C5C7" stroke-opacity="0.21" stroke-width="0.3"><path d="
M 402.00 208.00 
C 401.97 209.00 402.00 210.00 402.00 211.00
C 402.13 210.73 402.97 210.35 403.00 210.00
C 403.00 210.00 402.98 209.50 403.00 209.00
C 402.66 207.44 403.75 204.83 402.00 204.00
C 401.97 205.33 402.04 206.67 402.00 208.00 Z"/>
</g>
<g fill="None" fill-opacity="0.0" stroke="#D3CED2" stroke-opacity="0.49" stroke-width="0.3"><path d="
M 402.00 215.00 
C 401.77 213.77 402.00 212.25 402.00 211.00
C 402.00 210.00 401.97 209.00 402.00 208.00
C 401.36 210.66 400.85 212.20 402.00 215.00 Z"/>
</g>
<g fill="None" fill-opacity="0.0" stroke="#151515" stroke-opacity="1.00" stroke-width="0.3"><path d="
M 387.00 209.00 
C 383.60 206.96 380.05 212.19 383.33 214.67 C 386.60 217.14 390.21 210.93 387.00 209.00 Z"/>
</g>
<g fill="None" fill-opacity="0.0" stroke="#F2F2F2" stroke-opacity="0.04" stroke-width="0.3"><path d="
M 402.00 211.00 
C 402.00 212.25 401.77 213.77 402.00 215.00
C 402.47 216.14 403.55 217.11 404.00 218.00
C 403.54 215.71 403.67 211.29 403.00 210.00
C 402.97 210.35 402.13 210.73 402.00 211.00 Z"/>
</g>
<g fill="None" fill-opacity="0.0" stroke="#D4D1D2" stroke-opacity="0.78" stroke-width="0.3"><path d="
M 283.00 233.00 
C 286.64 233.25 290.36 232.67 294.00 233.00
C 291.92 230.84 285.27 231.76 283.00 233.00 Z"/>
</g>
<g fill="None" fill-opacity="0.0" stroke="#D3CED0" stroke-opacity="0.50" stroke-width="0.3"><path d="
M 302.00 233.00 
C 303.18 233.03 306.86 234.86 308.00 235.00
C 311.00 235.00 314.00 235.00 317.00 235.00
C 317.37 234.88 319.53 233.39 320.00 233.00
C 320.25 232.80 320.00 232.00 320.00 232.00
C 313.87 232.00 307.78 231.80 302.00 233.00 Z"/>
</g>
<g fill="None" fill-opacity="0.0" stroke="#D4D2D3" stroke-opacity="0.82" stroke-width="0.3"><path d="
M 320.00 233.00 
C 322.64 233.24 325.35 232.76 328.00 233.00
C 326.29 231.23 322.53 232.00 320.00 232.00
C 320.00 232.00 320.25 232.80 320.00 233.00 Z"/>
</g>
<g fill="None" fill-opacity="0.0" stroke="#C8C6C7" stroke-opacity="0.31" stroke-width="0.3"><path d="
M 292.00 234.00 
C 292.50 234.00 293.50 233.97 294.00 234.00
C 294.00 234.00 294.25 233.26 294.00 233.00
C 290.36 232.67 286.64 233.25 283.00 233.00
C 285.02 234.79 289.16 234.00 292.00 234.00 Z"/>
</g>
<g fill="None" fill-opacity="0.0" stroke="#DCD9D9" stroke-opacity="0.07" stroke-width="0.3"><path d="
M 294.00 234.00 
C 293.50 233.97 292.50 234.00 292.00 234.00
C 292.00 234.00 291.96 235.00 292.00 235.00
C 297.33 235.00 302.67 235.00 308.00 235.00
C 306.86 234.86 303.18 233.03 302.00 233.00
C 299.27 233.57 297.05 234.19 294.00 234.00 Z"/>
</g>
<g fill="None" fill-opacity="0.0" stroke="#E0DCDD" stroke-opacity="0.09" stroke-width="0.3"><path d="
M 317.00 235.00 
C 326.46 235.00 333.43 236.06 342.00 235.00
C 340.01 234.97 337.99 234.94 336.00 235.00
C 332.65 235.10 330.78 235.80 328.00 234.00
C 325.70 234.21 321.28 232.82 320.00 233.00
C 319.53 233.39 317.37 234.88 317.00 235.00 Z"/>
</g>
<g fill="None" fill-opacity="0.0" stroke="#CBC9CA" stroke-opacity="0.34" stroke-width="0.3"><path d="
M 328.00 234.00 
C 328.00 234.00 328.25 233.26 328.00 233.00
C 325.35 232.76 322.64 233.24 320.00 233.00
C 321.28 232.82 325.70 234.21 328.00 234.00 Z"/>
</g>
<g fill="None" fill-opacity="0.0" stroke="#D4D0D1" stroke-opacity="0.32" stroke-width="0.3"><path d="
M 336.00 235.00 
C 337.99 234.94 340.01 234.97 342.00 235.00
C 349.37 235.10 354.25 236.17 361.00 238.00
C 360.94 236.56 362.92 237.26 363.00 236.00
C 355.59 231.52 344.64 232.93 336.00 235.00 Z"/>
</g>
<g fill="#000000" fill-opacity="0.00" stroke="None">
<path d="
M 0.00 375.00 
L 666.00 375.00
L 666.00 0.00
L 0.00 0.00
L 0.00 375.00
M 300.00 136.00 
C 309.13 137.30 320.36 138.14 330.00 136.00
C 330.23 135.95 330.65 135.04 331.00 135.00
C 339.44 134.00 350.01 136.26 359.00 136.00
C 360.84 135.95 363.36 135.82 366.00 136.00
C 371.53 135.84 378.74 135.00 385.00 135.00
C 385.50 135.00 386.00 135.00 386.00 135.00
C 388.59 134.75 393.01 134.60 395.00 135.00
C 400.10 136.04 406.92 140.49 408.00 146.00
C 408.09 146.48 408.00 147.00 408.00 147.00
C 408.40 152.30 405.00 157.14 405.00 163.00
C 405.00 164.26 404.78 165.77 405.00 167.00
C 405.99 172.46 405.41 175.98 405.00 182.00
C 404.75 185.63 405.00 189.36 405.00 193.00
C 405.00 196.01 405.66 199.75 404.00 202.00
C 404.00 202.50 404.00 203.00 404.00 203.00
C 404.24 205.21 404.30 207.48 403.00 209.00
C 402.98 209.50 403.00 210.00 403.00 210.00
C 403.67 211.29 403.54 215.71 404.00 218.00
C 405.57 225.84 402.29 228.22 398.03 234.03 C 393.76 239.83 388.56 240.91 381.99 238.01 C 375.43 235.10 367.63 239.80 361.00 238.00
C 354.25 236.17 349.37 235.10 342.00 235.00
C 333.43 236.06 326.46 235.00 317.00 235.00
C 314.00 235.00 311.00 235.00 308.00 235.00
C 302.67 235.00 297.33 235.00 292.00 235.00
C 281.50 235.00 271.96 232.95 262.00 231.00
C 253.57 222.09 261.03 214.34 261.00 204.00
C 258.83 202.31 260.81 200.48 261.00 199.00
C 260.83 197.75 260.95 196.26 261.00 195.00
C 261.11 192.46 262.04 190.50 262.00 188.00
C 261.89 181.71 260.80 174.57 261.00 168.00
C 261.25 159.53 257.64 151.93 263.00 145.00
C 264.92 142.52 265.13 141.60 268.00 140.00
C 269.92 138.93 271.51 138.26 274.00 138.00
C 281.06 135.49 292.63 134.95 300.00 136.00 Z"/>
</g>
<g fill="#D6D4D6" fill-opacity="0.38" stroke="None">
<path d="
M 274.00 138.00 
C 277.40 137.64 283.68 137.78 288.00 139.00 C 292.32 140.22 299.67 136.06 300.00 136.00
C 292.63 134.95 281.06 135.49 274.00 138.00 Z"/>
</g>
<g fill="#D1CECF" fill-opacity="0.45" stroke="None">
<path d="
M 330.00 136.00 
C 330.47 138.34 333.24 138.01 335.00 138.00
C 335.82 134.85 331.51 137.17 331.00 135.00
C 330.65 135.04 330.23 135.95 330.00 136.00 Z"/>
</g>
<g fill="#D5D5D5" fill-opacity="0.96" stroke="None">
<path d="
M 330.00 136.00 
C 320.36 138.14 309.13 137.30 300.00 136.00
C 299.67 136.06 292.32 140.22 288.00 139.00 C 283.68 137.78 277.40 137.64 274.00 138.00
C 271.51 138.26 269.92 138.93 268.00 140.00
C 270.12 138.15 263.16 144.88 263.00 145.00
C 257.64 151.93 261.25 159.53 261.00 168.00
C 262.51 173.64 263.78 181.37 262.00 188.00
C 262.04 190.50 261.11 192.46 261.00 195.00
C 260.99 194.92 264.23 199.14 263.00 201.00 C 261.77 202.86 263.46 207.90 262.00 204.00
C 261.94 203.84 261.00 204.00 261.00 204.00
C 261.03 214.34 253.57 222.09 262.00 231.00
C 271.96 232.95 281.50 235.00 292.00 235.00
C 291.96 235.00 292.00 234.00 292.00 234.00
C 289.16 234.00 285.02 234.79 283.00 233.00
C 285.27 231.76 291.92 230.84 294.00 233.00
C 294.25 233.26 294.00 234.00 294.00 234.00
C 297.05 234.19 299.27 233.57 302.00 233.00
C 307.78 231.80 313.87 232.00 320.00 232.00
C 322.53 232.00 326.29 231.23 328.00 233.00
C 328.25 233.26 328.00 234.00 328.00 234.00
C 330.78 235.80 332.65 235.10 336.00 235.00
C 344.64 232.93 355.59 231.52 363.00 236.00
C 362.92 237.26 360.94 236.56 361.00 238.00
C 367.63 239.80 375.43 235.10 381.99 238.01 C 388.56 240.91 393.76 239.83 398.03 234.03 C 402.29 228.22 405.57 225.84 404.00 218.00
C 403.55 217.11 402.47 216.14 402.00 215.00
C 400.85 212.20 401.36 210.66 402.00 208.00
C 402.04 206.67 401.97 205.33 402.00 204.00
C 403.75 204.83 402.66 207.44 403.00 209.00
C 404.30 207.48 404.24 205.21 404.00 203.00
C 401.62 203.35 402.96 197.16 403.00 195.00
C 403.10 189.76 403.97 185.31 405.00 182.00
C 405.41 175.98 405.99 172.46 405.00 167.00
C 404.67 166.19 403.19 167.12 403.04 164.96 C 402.88 162.81 404.90 163.67 405.00 163.00
C 405.00 157.14 408.40 152.30 408.00 147.00
C 407.70 147.77 406.84 149.46 406.00 150.00
C 406.95 146.61 404.85 144.35 403.00 142.00
C 405.73 141.61 406.37 144.93 408.00 146.00
C 406.92 140.49 400.10 136.04 395.00 135.00
C 394.63 135.14 394.12 136.67 394.00 137.00
C 393.09 139.55 383.00 137.46 378.00 138.00 C 373.00 138.54 363.42 137.59 358.00 138.00
C 359.62 136.73 363.97 136.29 359.00 136.00
C 350.01 136.26 339.44 134.00 331.00 135.00
C 331.51 137.17 335.82 134.85 335.00 138.00
C 333.24 138.01 330.47 138.34 330.00 136.00
M 314.00 153.00 
C 317.04 152.56 318.90 152.36 321.00 153.00
C 328.19 155.18 325.69 161.08 320.00 161.00
C 321.12 167.97 326.98 162.69 330.00 161.00
C 330.78 154.35 334.97 144.91 342.00 144.00
C 342.03 146.99 340.70 149.65 339.00 152.00
C 338.35 153.16 337.64 154.06 337.00 155.00
C 333.86 159.61 332.19 171.03 340.00 164.00
C 339.46 170.34 328.94 171.02 329.00 164.00
C 323.19 168.64 313.86 165.58 317.00 157.00
C 317.19 155.39 318.08 156.29 317.00 155.00
C 308.03 152.02 313.97 175.36 304.00 172.00
C 304.20 167.13 306.37 162.79 307.00 158.00
C 299.87 156.88 303.88 169.00 297.00 168.00
C 298.48 163.48 298.90 159.88 298.00 155.00
C 303.96 157.77 301.31 145.96 307.00 146.00
C 307.00 148.54 304.40 150.26 305.00 153.00
C 312.42 153.72 308.20 140.01 317.00 143.00
C 317.31 146.78 314.64 149.42 314.00 153.00
M 354.00 149.00 
C 352.98 152.09 349.13 154.42 348.00 157.00
C 347.64 160.73 345.47 170.28 352.00 165.00
C 347.92 174.56 338.56 165.00 342.92 158.92 C 347.29 152.85 345.81 144.20 355.00 144.00
C 355.62 145.94 353.80 147.13 354.00 149.00
M 361.00 159.00 
C 360.38 157.61 360.74 155.45 360.00 154.00
C 362.03 153.36 362.06 155.69 362.00 157.00
C 363.68 158.81 364.23 161.24 368.00 160.00
C 368.51 161.41 367.19 162.15 366.00 162.00
C 364.25 163.12 362.84 162.49 361.00 164.00
C 360.14 165.86 358.10 168.01 356.00 168.00
C 351.89 163.79 355.52 157.78 357.00 154.00
C 356.56 155.99 358.79 161.68 361.00 159.00
M 387.00 191.00 
C 387.00 196.33 387.00 201.67 387.00 207.00
C 380.71 208.32 380.61 189.69 387.00 191.00
M 291.00 192.00 
C 292.24 195.78 289.02 196.54 286.00 196.00
C 286.00 202.33 286.00 208.67 286.00 215.00
C 275.91 216.13 284.06 201.42 280.00 196.00
C 276.90 196.65 273.93 195.77 275.00 192.00
C 280.33 192.00 285.67 192.00 291.00 192.00
M 312.00 192.00 
C 314.12 193.34 313.13 200.43 313.00 203.00 C 312.87 205.57 314.30 213.54 312.00 215.00
C 310.81 215.75 308.31 214.43 307.00 215.00
C 307.00 212.00 307.00 209.00 307.00 206.00
C 296.33 201.60 303.82 216.61 295.00 215.00
C 295.00 207.33 295.00 199.67 295.00 192.00
C 301.49 189.96 299.94 196.95 300.00 201.00
C 307.08 203.21 307.89 197.64 307.00 192.00
C 308.67 192.00 310.33 192.00 312.00 192.00
M 330.00 192.00 
C 332.20 199.30 319.35 192.79 322.00 201.00
C 326.04 200.76 331.80 200.02 330.00 206.00
C 326.67 206.22 320.51 204.44 322.00 210.00
C 326.04 209.76 331.80 209.02 330.00 215.00
C 325.67 215.00 321.33 215.00 317.00 215.00
C 317.00 207.33 317.00 199.67 317.00 192.00
C 321.33 192.00 325.67 192.00 330.00 192.00
M 335.00 214.00 
C 333.00 212.00 332.64 193.65 335.00 192.00
C 342.84 186.51 357.39 199.35 346.00 205.00
C 346.49 209.03 352.21 210.57 352.00 215.00
C 346.32 216.67 342.86 211.24 341.00 207.00
C 338.97 208.77 340.47 212.48 340.00 215.00
C 338.43 214.61 335.78 215.94 335.00 214.00
M 356.00 214.00 
C 354.00 212.00 353.64 193.65 356.00 192.00
C 358.91 189.96 365.74 193.53 369.00 192.00
C 370.63 197.50 364.25 195.78 361.00 196.00
C 357.81 204.01 367.96 198.03 368.92 203.08 C 369.87 208.14 358.20 203.43 361.00 210.00
C 376.31 208.18 363.81 219.93 356.00 214.00
M 387.00 209.00 
C 390.21 210.93 386.60 217.14 383.33 214.67 C 380.05 212.19 383.60 206.96 387.00 209.00 Z"/>
</g>
<g fill="#D5D2D5" fill-opacity="0.49" stroke="None">
<path d="
M 359.00 136.00 
C 363.97 136.29 359.62 136.73 358.00 138.00
C 363.42 137.59 373.00 138.54 378.00 138.00 C 383.00 137.46 393.09 139.55 394.00 137.00
C 392.45 137.53 387.17 135.55 386.00 135.00
C 386.00 135.00 385.50 135.00 385.00 135.00
C 381.47 137.61 370.68 136.32 366.00 136.00
C 363.36 135.82 360.84 135.95 359.00 136.00 Z"/>
</g>
<g fill="#F9F9F9" fill-opacity="0.01" stroke="None">
<path d="
M 366.00 136.00 
C 370.68 136.32 381.47 137.61 385.00 135.00
C 378.74 135.00 371.53 135.84 366.00 136.00 Z"/>
</g>
<g fill="#F5F4F5" fill-opacity="0.02" stroke="None">
<path d="
M 394.00 137.00 
C 394.12 136.67 394.63 135.14 395.00 135.00
C 393.01 134.60 388.59 134.75 386.00 135.00
C 387.17 135.55 392.45 137.53 394.00 137.00 Z"/>
</g>
<g fill="#D3D2D3" fill-opacity="0.24" stroke="None">
<path d="
M 263.00 145.00 
C 263.16 144.88 270.12 138.15 268.00 140.00
C 265.13 141.60 264.92 142.52 263.00 145.00 Z"/>
</g>
<g fill="#CCC8CB" fill-opacity="0.42" stroke="None">
<path d="
M 408.00 147.00 
C 408.00 147.00 408.09 146.48 408.00 146.00
C 406.37 144.93 405.73 141.61 403.00 142.00
C 404.85 144.35 406.95 146.61 406.00 150.00
C 406.84 149.46 407.70 147.77 408.00 147.00 Z"/>
</g>
<g fill="#0F0F0F" fill-opacity="1.00" stroke="None">
<path d="
M 317.00 155.00 
C 316.07 153.89 314.67 154.41 314.00 153.00
C 314.64 149.42 317.31 146.78 317.00 143.00
C 308.20 140.01 312.42 153.72 305.00 153.00
C 304.40 150.26 307.00 148.54 307.00 146.00
C 301.31 145.96 303.96 157.77 298.00 155.00
C 298.90 159.88 298.48 163.48 297.00 168.00
C 303.88 169.00 299.87 156.88 307.00 158.00
C 306.37 162.79 304.20 167.13 304.00 172.00
C 313.97 175.36 308.03 152.02 317.00 155.00 Z"/>
</g>
<g fill="#202020" fill-opacity="1.00" stroke="None">
<path d="
M 321.00 153.00 
C 320.46 153.11 318.05 157.78 317.00 157.00
C 313.86 165.58 323.19 168.64 329.00 164.00
C 328.94 171.02 339.46 170.34 340.00 164.00
C 332.19 171.03 333.86 159.61 337.00 155.00
C 337.02 154.87 335.05 147.12 340.00 146.00
C 341.17 148.21 337.15 150.69 339.00 152.00
C 340.70 149.65 342.03 146.99 342.00 144.00
C 334.97 144.91 330.78 154.35 330.00 161.00
C 326.98 162.69 321.12 167.97 320.00 161.00
C 325.69 161.08 328.19 155.18 321.00 153.00 Z"/>
</g>
<g fill="#161616" fill-opacity="1.00" stroke="None">
<path d="
M 348.00 157.00 
C 348.23 154.54 348.25 152.93 349.00 151.00
C 349.75 149.06 350.95 146.82 353.00 146.00
C 353.37 147.54 351.57 148.40 352.00 150.00
C 352.40 149.62 353.73 149.34 354.00 149.00
C 353.80 147.13 355.62 145.94 355.00 144.00
C 345.81 144.20 347.29 152.85 342.92 158.92 C 338.56 165.00 347.92 174.56 352.00 165.00
C 345.47 170.28 347.64 160.73 348.00 157.00 Z"/>
</g>
<g fill="#979797" fill-opacity="1.00" stroke="None">
<path d="
M 337.00 155.00 
C 337.64 154.06 338.35 153.16 339.00 152.00
C 337.15 150.69 341.17 148.21 340.00 146.00
C 335.05 147.12 337.02 154.87 337.00 155.00 Z"/>
</g>
<g fill="#B0B0B0" fill-opacity="1.00" stroke="None">
<path d="
M 349.00 151.00 
C 347.03 154.05 351.73 150.25 352.00 150.00
C 351.57 148.40 353.37 147.54 353.00 146.00
C 350.95 146.82 349.75 149.06 349.00 151.00 Z"/>
</g>
<g fill="#666666" fill-opacity="1.00" stroke="None">
<path d="
M 352.00 150.00 
C 351.73 150.25 347.03 154.05 349.00 151.00
C 348.25 152.93 348.23 154.54 348.00 157.00
C 349.13 154.42 352.98 152.09 354.00 149.00
C 353.73 149.34 352.40 149.62 352.00 150.00 Z"/>
</g>
<g fill="#676767" fill-opacity="1.00" stroke="None">
<path d="
M 314.00 153.00 
C 314.67 154.41 316.07 153.89 317.00 155.00
C 318.08 156.29 317.19 155.39 317.00 157.00
C 318.05 157.78 320.46 153.11 321.00 153.00
C 318.90 152.36 317.04 152.56 314.00 153.00 Z"/>
</g>
<g fill="#1E1E1E" fill-opacity="1.00" stroke="None">
<path d="
M 361.00 164.00 
C 361.50 162.93 361.83 161.24 362.00 160.00
C 362.07 159.51 362.00 159.00 362.00 159.00
C 361.75 158.75 361.00 159.00 361.00 159.00
C 358.79 161.68 356.56 155.99 357.00 154.00
C 355.52 157.78 351.89 163.79 356.00 168.00
C 358.10 168.01 360.14 165.86 361.00 164.00 Z"/>
</g>
<g fill="#6E6E6E" fill-opacity="1.00" stroke="None">
<path d="
M 361.00 159.00 
C 361.00 159.00 361.75 158.75 362.00 159.00
C 362.00 158.50 362.08 157.49 362.00 157.00
C 362.06 155.69 362.03 153.36 360.00 154.00
C 360.74 155.45 360.38 157.61 361.00 159.00 Z"/>
</g>
<g fill="#979797" fill-opacity="1.00" stroke="None">
<path d="
M 362.00 159.00 
C 362.00 159.00 362.07 159.51 362.00 160.00
C 362.73 160.50 365.55 161.95 366.00 162.00
C 367.19 162.15 368.51 161.41 368.00 160.00
C 364.23 161.24 363.68 158.81 362.00 157.00
C 362.08 157.49 362.00 158.50 362.00 159.00 Z"/>
</g>
<g fill="#5B5B5B" fill-opacity="1.00" stroke="None">
<path d="
M 361.00 164.00 
C 362.84 162.49 364.25 163.12 366.00 162.00
C 365.55 161.95 362.73 160.50 362.00 160.00
C 361.83 161.24 361.50 162.93 361.00 164.00 Z"/>
</g>
<g fill="#E6DDE5" fill-opacity="0.15" stroke="None">
<path d="
M 405.00 167.00 
C 404.78 165.77 405.00 164.26 405.00 163.00
C 404.90 163.67 402.88 162.81 403.04 164.96 C 403.19 167.12 404.67 166.19 405.00 167.00 Z"/>
</g>
<g fill="#D6D2D3" fill-opacity="0.46" stroke="None">
<path d="
M 262.00 188.00 
C 263.78 181.37 262.51 173.64 261.00 168.00
C 260.80 174.57 261.89 181.71 262.00 188.00 Z"/>
</g>
<g fill="#CFCBCC" fill-opacity="0.40" stroke="None">
<path d="
M 403.00 195.00 
C 403.00 195.01 404.00 195.00 404.00 195.00
C 404.15 193.91 404.84 193.62 405.00 193.00
C 405.00 189.36 404.75 185.63 405.00 182.00
C 403.97 185.31 403.10 189.76 403.00 195.00 Z"/>
</g>
<g fill="#0E0E0E" fill-opacity="1.00" stroke="None">
<path d="
M 387.00 191.00 
C 380.61 189.69 380.71 208.32 387.00 207.00
C 387.00 201.67 387.00 196.33 387.00 191.00 Z"/>
</g>
<g fill="#060606" fill-opacity="1.00" stroke="None">
<path d="
M 291.00 192.00 
C 285.67 192.00 280.33 192.00 275.00 192.00
C 273.93 195.77 276.90 196.65 280.00 196.00
C 284.06 201.42 275.91 216.13 286.00 215.00
C 286.00 208.67 286.00 202.33 286.00 196.00
C 289.02 196.54 292.24 195.78 291.00 192.00 Z"/>
</g>
<g fill="#030303" fill-opacity="1.00" stroke="None">
<path d="
M 312.00 215.00 
C 312.00 207.33 312.00 199.67 312.00 192.00
C 310.33 192.00 308.67 192.00 307.00 192.00
C 307.89 197.64 307.08 203.21 300.00 201.00
C 299.94 196.95 301.49 189.96 295.00 192.00
C 295.00 199.67 295.00 207.33 295.00 215.00
C 303.82 216.61 296.33 201.60 307.00 206.00
C 307.00 209.00 307.00 212.00 307.00 215.00
C 308.31 214.43 310.81 215.75 312.00 215.00 Z"/>
</g>
<g fill="#757575" fill-opacity="1.00" stroke="None">
<path d="
M 312.00 215.00 
C 314.30 213.54 312.87 205.57 313.00 203.00 C 313.13 200.43 314.12 193.34 312.00 192.00
C 312.00 199.67 312.00 207.33 312.00 215.00 Z"/>
</g>
<g fill="#080808" fill-opacity="1.00" stroke="None">
<path d="
M 330.00 192.00 
C 325.67 192.00 321.33 192.00 317.00 192.00
C 317.00 199.67 317.00 207.33 317.00 215.00
C 321.33 215.00 325.67 215.00 330.00 215.00
C 331.80 209.02 326.04 209.76 322.00 210.00
C 320.51 204.44 326.67 206.22 330.00 206.00
C 331.80 200.02 326.04 200.76 322.00 201.00
C 319.35 192.79 332.20 199.30 330.00 192.00 Z"/>
</g>
<g fill="#656565" fill-opacity="1.00" stroke="None">
<path d="
M 335.00 214.00 
C 331.61 208.93 337.54 197.64 335.00 192.00
C 332.64 193.65 333.00 212.00 335.00 214.00 Z"/>
</g>
<g fill="#080808" fill-opacity="1.00" stroke="None">
<path d="
M 335.00 214.00 
C 335.78 215.94 338.43 214.61 340.00 215.00
C 340.47 212.48 338.97 208.77 341.00 207.00
C 342.86 211.24 346.32 216.67 352.00 215.00
C 352.21 210.57 346.49 209.03 346.00 205.00
C 357.39 199.35 342.84 186.51 335.00 192.00
C 337.54 197.64 331.61 208.93 335.00 214.00
M 340.00 196.00 
C 349.91 197.07 337.66 207.72 340.00 196.00 Z"/>
</g>
<g fill="#6A6A6A" fill-opacity="1.00" stroke="None">
<path d="
M 356.00 214.00 
C 352.55 209.08 358.58 197.52 356.00 192.00
C 353.64 193.65 354.00 212.00 356.00 214.00 Z"/>
</g>
<g fill="#050505" fill-opacity="1.00" stroke="None">
<path d="
M 356.00 214.00 
C 363.81 219.93 376.31 208.18 361.00 210.00
C 358.20 203.43 369.87 208.14 368.92 203.08 C 367.96 198.03 357.81 204.01 361.00 196.00
C 364.25 195.78 370.63 197.50 369.00 192.00
C 365.74 193.53 358.91 189.96 356.00 192.00
C 358.58 197.52 352.55 209.08 356.00 214.00 Z"/>
</g>
<g fill="#F6F6F6" fill-opacity="0.01" stroke="None">
<path d="
M 404.00 195.00 
C 403.70 197.24 404.00 199.74 404.00 202.00
C 405.66 199.75 405.00 196.01 405.00 193.00
C 404.84 193.62 404.15 193.91 404.00 195.00 Z"/>
</g>
<g fill="#D3CDCF" fill-opacity="0.67" stroke="None">
<path d="
M 261.00 199.00 
C 261.17 200.24 262.63 202.04 262.00 204.00
C 263.46 207.90 261.77 202.86 263.00 201.00 C 264.23 199.14 260.99 194.92 261.00 195.00
C 260.95 196.26 260.83 197.75 261.00 199.00 Z"/>
</g>
<g fill="#CECAD0" fill-opacity="0.20" stroke="None">
<path d="
M 404.00 203.00 
C 404.00 203.00 404.00 202.50 404.00 202.00
C 404.00 199.74 403.70 197.24 404.00 195.00
C 404.00 195.00 403.00 195.01 403.00 195.00
C 402.96 197.16 401.62 203.35 404.00 203.00 Z"/>
</g>
<g fill="#CFCFCF" fill-opacity="1.00" stroke="None">
<path d="
M 340.00 196.00 
C 337.66 207.72 349.91 197.07 340.00 196.00 Z"/>
</g>
<g fill="#CFC2C9" fill-opacity="0.22" stroke="None">
<path d="
M 261.00 204.00 
C 261.00 204.00 261.94 203.84 262.00 204.00
C 262.63 202.04 261.17 200.24 261.00 199.00
C 260.81 200.48 258.83 202.31 261.00 204.00 Z"/>
</g>
<g fill="#C5C5C7" fill-opacity="0.21" stroke="None">
<path d="
M 402.00 208.00 
C 401.97 209.00 402.00 210.00 402.00 211.00
C 402.13 210.73 402.97 210.35 403.00 210.00
C 403.00 210.00 402.98 209.50 403.00 209.00
C 402.66 207.44 403.75 204.83 402.00 204.00
C 401.97 205.33 402.04 206.67 402.00 208.00 Z"/>
</g>
<g fill="#D3CED2" fill-opacity="0.49" stroke="None">
<path d="
M 402.00 215.00 
C 401.77 213.77 402.00 212.25 402.00 211.00
C 402.00 210.00 401.97 209.00 402.00 208.00
C 401.36 210.66 400.85 212.20 402.00 215.00 Z"/>
</g>
<g fill="#151515" fill-opacity="1.00" stroke="None">
<path d="
M 387.00 209.00 
C 383.60 206.96 380.05 212.19 383.33 214.67 C 386.60 217.14 390.21 210.93 387.00 209.00 Z"/>
</g>
<g fill="#F2F2F2" fill-opacity="0.04" stroke="None">
<path d="
M 402.00 211.00 
C 402.00 212.25 401.77 213.77 402.00 215.00
C 402.47 216.14 403.55 217.11 404.00 218.00
C 403.54 215.71 403.67 211.29 403.00 210.00
C 402.97 210.35 402.13 210.73 402.00 211.00 Z"/>
</g>
<g fill="#D4D1D2" fill-opacity="0.78" stroke="None">
<path d="
M 283.00 233.00 
C 286.64 233.25 290.36 232.67 294.00 233.00
C 291.92 230.84 285.27 231.76 283.00 233.00 Z"/>
</g>
<g fill="#D3CED0" fill-opacity="0.50" stroke="None">
<path d="
M 302.00 233.00 
C 303.18 233.03 306.86 234.86 308.00 235.00
C 311.00 235.00 314.00 235.00 317.00 235.00
C 317.37 234.88 319.53 233.39 320.00 233.00
C 320.25 232.80 320.00 232.00 320.00 232.00
C 313.87 232.00 307.78 231.80 302.00 233.00 Z"/>
</g>
<g fill="#D4D2D3" fill-opacity="0.82" stroke="None">
<path d="
M 320.00 233.00 
C 322.64 233.24 325.35 232.76 328.00 233.00
C 326.29 231.23 322.53 232.00 320.00 232.00
C 320.00 232.00 320.25 232.80 320.00 233.00 Z"/>
</g>
<g fill="#C8C6C7" fill-opacity="0.31" stroke="None">
<path d="
M 292.00 234.00 
C 292.50 234.00 293.50 233.97 294.00 234.00
C 294.00 234.00 294.25 233.26 294.00 233.00
C 290.36 232.67 286.64 233.25 283.00 233.00
C 285.02 234.79 289.16 234.00 292.00 234.00 Z"/>
</g>
<g fill="#DCD9D9" fill-opacity="0.07" stroke="None">
<path d="
M 294.00 234.00 
C 293.50 233.97 292.50 234.00 292.00 234.00
C 292.00 234.00 291.96 235.00 292.00 235.00
C 297.33 235.00 302.67 235.00 308.00 235.00
C 306.86 234.86 303.18 233.03 302.00 233.00
C 299.27 233.57 297.05 234.19 294.00 234.00 Z"/>
</g>
<g fill="#E0DCDD" fill-opacity="0.09" stroke="None">
<path d="
M 317.00 235.00 
C 326.46 235.00 333.43 236.06 342.00 235.00
C 340.01 234.97 337.99 234.94 336.00 235.00
C 332.65 235.10 330.78 235.80 328.00 234.00
C 325.70 234.21 321.28 232.82 320.00 233.00
C 319.53 233.39 317.37 234.88 317.00 235.00 Z"/>
</g>
<g fill="#CBC9CA" fill-opacity="0.34" stroke="None">
<path d="
M 328.00 234.00 
C 328.00 234.00 328.25 233.26 328.00 233.00
C 325.35 232.76 322.64 233.24 320.00 233.00
C 321.28 232.82 325.70 234.21 328.00 234.00 Z"/>
</g>
<g fill="#D4D0D1" fill-opacity="0.32" stroke="None">
<path d="
M 336.00 235.00 
C 337.99 234.94 340.01 234.97 342.00 235.00
C 349.37 235.10 354.25 236.17 361.00 238.00
C 360.94 236.56 362.92 237.26 363.00 236.00
C 355.59 231.52 344.64 232.93 336.00 235.00 Z"/>
</g>
</svg>